<svg xmlns="http://www.w3.org/2000/svg" viewBox="0 0 32 32" width="32" height="32">
  <defs>
    <clipPath id="a">
      <rect width="32" height="32"/>
    </clipPath>
  </defs>
  <g clip-path="url(#a)">
    <rect width="32" height="2.46" fill="#B22234"/>
    <rect y="2.46" width="32" height="2.46" fill="#FFF"/>
    <rect y="4.92" width="32" height="2.46" fill="#B22234"/>
    <rect y="7.38" width="32" height="2.46" fill="#FFF"/>
    <rect y="9.84" width="32" height="2.46" fill="#B22234"/>
    <rect y="12.3" width="32" height="2.46" fill="#FFF"/>
    <rect y="14.76" width="32" height="2.46" fill="#B22234"/>
    <rect y="17.22" width="32" height="2.46" fill="#FFF"/>
    <rect y="19.68" width="32" height="2.46" fill="#B22234"/>
    <rect y="22.14" width="32" height="2.46" fill="#FFF"/>
    <rect y="24.6" width="32" height="2.46" fill="#B22234"/>
    <rect y="27.06" width="32" height="2.46" fill="#FFF"/>
    <rect y="29.52" width="32" height="2.48" fill="#B22234"/>
    <rect width="12.8" height="14.76" fill="#3C3B6E"/>
    <g fill="#FFF">
      <circle cx="2.13" cy="1.64" r="0.8"/>
      <circle cx="4.27" cy="1.64" r="0.8"/>
      <circle cx="6.4" cy="1.64" r="0.8"/>
      <circle cx="8.53" cy="1.64" r="0.8"/>
      <circle cx="10.67" cy="1.64" r="0.8"/>
      <circle cx="3.2" cy="3.28" r="0.8"/>
      <circle cx="5.33" cy="3.28" r="0.8"/>
      <circle cx="7.47" cy="3.28" r="0.8"/>
      <circle cx="9.6" cy="3.28" r="0.8"/>
      <circle cx="2.13" cy="4.92" r="0.8"/>
      <circle cx="4.27" cy="4.92" r="0.8"/>
      <circle cx="6.4" cy="4.92" r="0.8"/>
      <circle cx="8.53" cy="4.92" r="0.8"/>
      <circle cx="10.67" cy="4.92" r="0.8"/>
      <circle cx="3.2" cy="6.56" r="0.8"/>
      <circle cx="5.33" cy="6.56" r="0.8"/>
      <circle cx="7.47" cy="6.56" r="0.8"/>
      <circle cx="9.6" cy="6.56" r="0.8"/>
      <circle cx="2.13" cy="8.2" r="0.8"/>
      <circle cx="4.27" cy="8.2" r="0.8"/>
      <circle cx="6.4" cy="8.2" r="0.8"/>
      <circle cx="8.53" cy="8.2" r="0.8"/>
      <circle cx="10.67" cy="8.2" r="0.8"/>
      <circle cx="3.2" cy="9.84" r="0.8"/>
      <circle cx="5.33" cy="9.84" r="0.8"/>
      <circle cx="7.47" cy="9.84" r="0.8"/>
      <circle cx="9.6" cy="9.84" r="0.8"/>
      <circle cx="2.13" cy="11.48" r="0.8"/>
      <circle cx="4.27" cy="11.48" r="0.8"/>
      <circle cx="6.4" cy="11.48" r="0.8"/>
      <circle cx="8.53" cy="11.48" r="0.8"/>
      <circle cx="10.67" cy="11.48" r="0.8"/>
      <circle cx="3.2" cy="13.12" r="0.8"/>
      <circle cx="5.33" cy="13.12" r="0.8"/>
      <circle cx="7.47" cy="13.12" r="0.8"/>
      <circle cx="9.6" cy="13.12" r="0.8"/>
    </g>
  </g>
</svg>
