<svg xmlns="http://www.w3.org/2000/svg" viewBox="0 0 60 30">
  <clipPath id="s">
    <path d="M0,0 v30 h60 v-30 z"/>
  </clipPath>
  <clipPath id="t">
    <path d="M30,15 h30 v15 z v15 h-30 z h-30 v-15 z v-15 h30 z"/>
  </clipPath>
  <g clip-path="url(#s)">
    <path d="M0,0 v30 h60 v-30 z" fill="#bd3d44"/>
    <path d="M0,3.46 h60 M0,6.92 h60 M0,10.38 h60 M0,13.85 h60 M0,17.31 h60 M0,20.77 h60 M0,24.23 h60 M0,27.69 h60" stroke="#fff" stroke-width="2.31"/>
    <path d="M0,0 v15 h30 v-15 z" fill="#192f5d"/>
    <g fill="#fff">
      <path d="M2.5,1 l0.5,1.5 h1.5 l-1.2,0.9 l0.5,1.5 l-1.2-0.9 l-1.2,0.9 l0.5-1.5 l-1.2-0.9 h1.5 z"/>
      <path d="M7.5,1 l0.5,1.5 h1.5 l-1.2,0.9 l0.5,1.5 l-1.2-0.9 l-1.2,0.9 l0.5-1.5 l-1.2-0.9 h1.5 z"/>
      <path d="M12.5,1 l0.5,1.5 h1.5 l-1.2,0.9 l0.5,1.5 l-1.2-0.9 l-1.2,0.9 l0.5-1.5 l-1.2-0.9 h1.5 z"/>
      <path d="M17.5,1 l0.5,1.5 h1.5 l-1.2,0.9 l0.5,1.5 l-1.2-0.9 l-1.2,0.9 l0.5-1.5 l-1.2-0.9 h1.5 z"/>
      <path d="M22.5,1 l0.5,1.5 h1.5 l-1.2,0.9 l0.5,1.5 l-1.2-0.9 l-1.2,0.9 l0.5-1.5 l-1.2-0.9 h1.5 z"/>
      <path d="M27.5,1 l0.5,1.5 h1.5 l-1.2,0.9 l0.5,1.5 l-1.2-0.9 l-1.2,0.9 l0.5-1.5 l-1.2-0.9 h1.5 z"/>
      <path d="M5,3.5 l0.5,1.5 h1.5 l-1.2,0.9 l0.5,1.5 l-1.2-0.9 l-1.2,0.9 l0.5-1.5 l-1.2-0.9 h1.5 z"/>
      <path d="M10,3.5 l0.5,1.5 h1.5 l-1.2,0.9 l0.5,1.5 l-1.2-0.9 l-1.2,0.9 l0.5-1.5 l-1.2-0.9 h1.5 z"/>
      <path d="M15,3.5 l0.5,1.5 h1.5 l-1.2,0.9 l0.5,1.5 l-1.2-0.9 l-1.2,0.9 l0.5-1.5 l-1.2-0.9 h1.5 z"/>
      <path d="M20,3.5 l0.5,1.5 h1.5 l-1.2,0.9 l0.5,1.5 l-1.2-0.9 l-1.2,0.9 l0.5-1.5 l-1.2-0.9 h1.5 z"/>
      <path d="M25,3.5 l0.5,1.5 h1.5 l-1.2,0.9 l0.5,1.5 l-1.2-0.9 l-1.2,0.9 l0.5-1.5 l-1.2-0.9 h1.5 z"/>
      <path d="M2.5,6 l0.5,1.5 h1.5 l-1.2,0.9 l0.5,1.5 l-1.2-0.9 l-1.2,0.9 l0.5-1.5 l-1.2-0.9 h1.5 z"/>
      <path d="M7.5,6 l0.5,1.5 h1.5 l-1.2,0.9 l0.5,1.5 l-1.2-0.9 l-1.2,0.9 l0.5-1.5 l-1.2-0.9 h1.5 z"/>
      <path d="M12.5,6 l0.5,1.5 h1.5 l-1.2,0.9 l0.5,1.5 l-1.2-0.9 l-1.2,0.9 l0.5-1.5 l-1.2-0.9 h1.5 z"/>
      <path d="M17.5,6 l0.5,1.5 h1.5 l-1.2,0.9 l0.5,1.5 l-1.2-0.9 l-1.2,0.9 l0.5-1.5 l-1.2-0.9 h1.5 z"/>
      <path d="M22.5,6 l0.5,1.5 h1.5 l-1.2,0.9 l0.5,1.5 l-1.2-0.9 l-1.2,0.9 l0.5-1.5 l-1.2-0.9 h1.5 z"/>
      <path d="M27.5,6 l0.5,1.5 h1.5 l-1.2,0.9 l0.5,1.5 l-1.2-0.9 l-1.2,0.9 l0.5-1.5 l-1.2-0.9 h1.5 z"/>
      <path d="M5,8.5 l0.5,1.5 h1.5 l-1.2,0.9 l0.5,1.5 l-1.2-0.9 l-1.2,0.9 l0.5-1.5 l-1.2-0.9 h1.5 z"/>
      <path d="M10,8.5 l0.5,1.5 h1.5 l-1.2,0.9 l0.5,1.5 l-1.2-0.9 l-1.2,0.9 l0.5-1.5 l-1.2-0.9 h1.5 z"/>
      <path d="M15,8.5 l0.5,1.5 h1.5 l-1.2,0.9 l0.5,1.5 l-1.2-0.9 l-1.2,0.9 l0.5-1.5 l-1.2-0.9 h1.5 z"/>
      <path d="M20,8.5 l0.5,1.5 h1.5 l-1.2,0.9 l0.5,1.5 l-1.2-0.9 l-1.2,0.9 l0.5-1.5 l-1.2-0.9 h1.5 z"/>
      <path d="M25,8.5 l0.5,1.5 h1.5 l-1.2,0.9 l0.5,1.5 l-1.2-0.9 l-1.2,0.9 l0.5-1.5 l-1.2-0.9 h1.5 z"/>
      <path d="M2.5,11 l0.5,1.5 h1.5 l-1.2,0.9 l0.5,1.5 l-1.2-0.9 l-1.2,0.9 l0.5-1.5 l-1.2-0.9 h1.5 z"/>
      <path d="M7.5,11 l0.5,1.5 h1.5 l-1.2,0.9 l0.5,1.5 l-1.2-0.9 l-1.2,0.9 l0.5-1.5 l-1.2-0.9 h1.5 z"/>
      <path d="M12.5,11 l0.5,1.5 h1.5 l-1.2,0.9 l0.5,1.5 l-1.2-0.9 l-1.2,0.9 l0.5-1.5 l-1.2-0.9 h1.5 z"/>
      <path d="M17.5,11 l0.5,1.5 h1.5 l-1.2,0.9 l0.5,1.5 l-1.2-0.9 l-1.2,0.9 l0.5-1.5 l-1.2-0.9 h1.5 z"/>
      <path d="M22.5,11 l0.5,1.5 h1.5 l-1.2,0.9 l0.5,1.5 l-1.2-0.9 l-1.2,0.9 l0.5-1.5 l-1.2-0.9 h1.5 z"/>
      <path d="M27.5,11 l0.5,1.5 h1.5 l-1.2,0.9 l0.5,1.5 l-1.2-0.9 l-1.2,0.9 l0.5-1.5 l-1.2-0.9 h1.5 z"/>
    </g>
  </g>
</svg>
